<svg width="1026" height="554" viewBox="0 0 1026 554" fill="none" xmlns="http://www.w3.org/2000/svg">
<rect x="38.9963" y="40.5" width="986.504" height="513" fill="black" stroke="black"/>
<rect x="0.5" y="0.5" width="986.504" height="513" fill="white" stroke="black"/>
<path d="M129.081 296.75L47.106 259.4V249.8L129.081 212.45V224.45L62.631 254.6L129.081 284.75V296.75ZM147.041 335L208.841 188H220.916L159.116 335H147.041ZM248.331 317V152H295.131C306.065 152 315.531 153.9 323.531 157.7C331.531 161.5 337.698 166.967 342.031 174.1C346.431 181.167 348.631 189.667 348.631 199.6C348.631 208.267 346.931 215.967 343.531 222.7C340.131 229.433 335.265 234.933 328.931 239.2C322.665 243.467 315.165 246.267 306.431 247.6L361.031 317H335.231L284.131 249.7H268.631V317H248.331ZM268.631 232.4H289.631C297.498 232.4 304.265 231.1 309.931 228.5C315.598 225.9 319.965 222.2 323.031 217.4C326.098 212.533 327.631 206.767 327.631 200.1C327.631 190.167 324.265 182.4 317.531 176.8C310.865 171.2 301.565 168.4 289.631 168.4H268.631V232.4ZM425.889 320.2C416.356 320.2 407.723 317.867 399.989 313.2C392.323 308.467 386.223 302 381.689 293.8C377.223 285.6 374.989 276.233 374.989 265.7C374.989 255.3 377.189 246.033 381.589 237.9C385.989 229.7 392.023 223.233 399.689 218.5C407.356 213.767 416.089 211.4 425.889 211.4C434.556 211.4 442.456 213.333 449.589 217.2C456.789 221.067 462.356 226.433 466.289 233.3V214.6H485.689V317H466.289V297.8C461.823 304.867 456.089 310.367 449.089 314.3C442.089 318.233 434.356 320.2 425.889 320.2ZM431.089 303.5C438.089 303.5 444.256 301.9 449.589 298.7C454.989 295.433 459.223 290.967 462.289 285.3C465.356 279.633 466.889 273.133 466.889 265.8C466.889 258.467 465.356 251.967 462.289 246.3C459.223 240.633 454.989 236.2 449.589 233C444.256 229.733 438.089 228.1 431.089 228.1C424.156 228.1 417.989 229.733 412.589 233C407.189 236.2 402.923 240.633 399.789 246.3C396.723 251.967 395.189 258.467 395.189 265.8C395.189 273.067 396.723 279.567 399.789 285.3C402.923 290.967 407.189 295.433 412.589 298.7C417.989 301.9 424.156 303.5 431.089 303.5ZM526.63 317V145H546.03V317H526.63ZM586.981 369V214.6H606.381V233.2C610.515 226.333 616.081 221 623.081 217.2C630.148 213.333 637.915 211.4 646.381 211.4C656.248 211.4 665.015 213.767 672.681 218.5C680.415 223.233 686.515 229.7 690.981 237.9C695.448 246.033 697.681 255.333 697.681 265.8C697.681 276.133 695.448 285.433 690.981 293.7C686.581 301.9 680.548 308.367 672.881 313.1C665.215 317.833 656.515 320.2 646.781 320.2C638.381 320.2 630.648 318.233 623.581 314.3C616.515 310.367 610.781 304.867 606.381 297.8V369H586.981ZM641.681 303.5C648.615 303.5 654.781 301.9 660.181 298.7C665.581 295.433 669.815 290.967 672.881 285.3C675.948 279.633 677.481 273.167 677.481 265.9C677.481 258.567 675.915 252.067 672.781 246.4C669.715 240.667 665.481 236.2 660.081 233C654.748 229.733 648.615 228.1 641.681 228.1C634.748 228.1 628.548 229.733 623.081 233C617.681 236.2 613.415 240.633 610.281 246.3C607.215 251.967 605.681 258.467 605.681 265.8C605.681 273.133 607.215 279.633 610.281 285.3C613.415 290.967 617.681 295.433 623.081 298.7C628.548 301.9 634.748 303.5 641.681 303.5ZM731.122 317V144.9H750.522V227.8C753.655 223.133 758.155 219.233 764.022 216.1C769.889 212.967 776.855 211.4 784.922 211.4C792.855 211.4 799.722 213.067 805.522 216.4C811.322 219.667 815.789 224.4 818.922 230.6C822.122 236.8 823.722 244.2 823.722 252.8V317H804.322V256.7C804.322 247.1 802.022 239.733 797.422 234.6C792.822 229.4 786.355 226.8 778.022 226.8C772.289 226.8 767.355 227.967 763.222 230.3C759.155 232.633 756.022 235.733 753.822 239.6C751.622 243.4 750.522 247.567 750.522 252.1V317H731.122ZM858.463 296.75V284.75L924.988 254.6L858.463 224.45V212.45L940.438 249.8V259.4L858.463 296.75Z" fill="black"/>
</svg>
